<svg fill="#fff" xmlns="http://www.w3.org/2000/svg" height="800" width="1200" viewBox="-7.937505 -2.6123 68.79171 15.6738"><path d="M6.6918 7.775H2.3175L1.193 10.449H0v-.0276c.096-.1235.3977-.5347.7678-1.3986L4.004 1.4946l-.1508-.3563c-.233-.576-.439-.919-.6445-1.1108V0h1.81l3.8806 9.037c.3701.85.6172 1.2615.7268 1.3848v.0275H7.8298zm-.3429-.7953L4.484 2.6326 2.66 6.9797zm8.2548-1.8785c.8228-.3154 1.3988-1.0835 1.3988-2.3038 0-1.4536-1.056-2.1254-2.3037-2.1254H12.396v9.7772h-1.8923v-.0275c.096-.1783.3154-.5622.3154-1.4396V1.467c0-.8776-.2194-1.2615-.3154-1.4398V0h3.8396c1.4947 0 3.3047.713 3.3047 2.6876 0 1.8375-1.3849 2.6329-2.7837 2.7837l2.6876 3.771c.439.6171.9324 1.042 1.1108 1.1793v.0275H16.592L12.876 5.17l1.3575-.5897zm7.2813 5.3205v.0275h-2.2077v-.0275c.096-.1784.3154-.5623.3154-1.4396V1.467c0-.8776-.2193-1.2615-.3154-1.4398V0h2.2077v.0275c-.0958.1783-.3154.5622-.3154 1.4398V8.982c0 .8774.2196 1.2613.3154 1.4396zm6.2942 0v.0275h-2.208v-.0275c.096-.1784.3154-.5623.3154-1.4396V.672c-1.3165.1645-2.7014.6032-3.1538.8913L23.3384 0h7.4737l.2053 1.5632c-.4387-.288-1.8238-.7268-3.1539-.8914v8.31c.0003.8776.2196 1.2615.3157 1.4399zm10.5862.0275H31.196v-.0275L36.7223.713c-1.9608.096-3.3321.2878-4.5802.85L32.3477 0h6.5273v.0274L33.3486 9.75c2.249-.0688 4.2098-.2196 5.6224-.8641zm3.6611-.0275v.0275h-2.2077v-.0275c.0958-.1784.3151-.5623.3151-1.4396V1.467c0-.8776-.2193-1.2615-.3151-1.4398V0h2.2077v.0275c-.0958.1783-.3151.5622-.3151 1.4398V8.982c-.0003.8774.219 1.2613.315 1.4396zm7.5557-2.6467h-4.3746l-1.1243 2.674h-1.1932v-.0276c.096-.1235.3979-.5347.7678-1.3986l3.2364-7.5282-.1506-.3563c-.2333-.576-.439-.919-.6448-1.1108V0h1.8103L52.19 9.037c.3701.85.617 1.2615.7268 1.3848v.0275h-1.7965zm-.343-.7953l-1.865-4.3471-1.824 4.3471z"/></svg>