<svg fill="#fff" xmlns="http://www.w3.org/2000/svg" height="800" width="1200" class="svg-electron-logo-text hero__svg hero__svg--short electron__svg" viewBox="-112.5 -13.455125 975 80.73075"><path d="M53.3 1.234H7.7c-.8 0-1.6 0-2.4.2-2.6.4-4.3 1.8-5 4.4-.2.8-.3 1.5-.3 2.3v37.6c0 .7 0 1.4.2 2 .4 1.7 1.1 3.2 2.7 4.1 1.2.7 2.6 1 3.9 1h46.6c.7 0 .9-.2.9-.9v-6.6c0-1 0-1-1-1H10.5c-.9-.1-1.6-.6-1.6-1.5v-11.1c0-.4.1-.6.5-.6H53c.8 0 1-.2.9-1-.1-2.1 0-4.3 0-6.4 0-1 0-1-1-1H9.4c-.4 0-.6-.1-.6-.6v-10.5c0-.9.4-1.4 1.3-1.6.4-.1.9-.1 1.3-.1h41.8c.8 0 1-.2 1-1 0-2.3-.1-4.5 0-6.8.1-.7-.2-.9-.9-.9zm197.5 0h-45.7c-.8 0-1.6 0-2.4.2-1.7.3-3.3 1-4.2 2.6-.8 1.3-1 2.7-1 4.2v37.3c0 .7 0 1.5.2 2.2.3 1.6.9 3 2.3 3.9 1.4 1 3 1.2 4.7 1.2H251c.7 0 .9-.2.8-.8v-6.6c0-1.1 0-1.1-1-1.1h-42.2c-1.7 0-2.2-.5-2.2-2.2v-10c0-.7.2-.9.9-.9h43.5c.7 0 .9-.2.8-.8v-6.4c0-1.3.2-1.2-1.1-1.2h-43.1c-.7 0-.9-.1-.9-.9v-10.1c0-1 .4-1.5 1.4-1.7.4-.1.8-.1 1.2-.1H251c.7 0 .9-.2.9-.9 0-2.3-.1-4.6 0-6.9-.1-.8-.4-1-1.1-1zm499.2.7c0-.6-.2-.7-.7-.7h-7.4c-.8 0-1 .2-1 1v41.2c-.1.8-.4 1.3-1.2 1.5-1.2.3-2.4-.2-3.4-1.5-4.6-6-9.2-11.9-13.8-17.9-5.3-6.9-10.6-13.8-16-20.7-1.5-1.9-3.2-3.5-5.7-4.2-2.5-.7-5-.8-7.6-.4-1.7.3-3.2.9-4.5 2.1-1.9 1.7-2.8 3.9-2.8 6.5v42.9c0 1 0 1 1 1h6.9c.7 0 1-.2 1-.9v-40.7c.1-1.2.9-2 2.1-2.1 1.2-.1 2 .5 2.6 1.3 2.6 3.2 5.2 6.5 7.7 9.7 3.8 4.8 7.6 9.6 11.4 14.3 3.9 4.9 7.8 9.8 11.7 14.6 1.3 1.6 2.6 3.1 4.5 3.9 1.3.5 2.6.8 3.9.9 2.1.2 4.1.1 6-.8 3.7-1.7 5.2-4.9 5.2-8.7.1-13.9.1-28.1.1-42.3zm-400.9 42.4h-25.6c-1.8 0-3.6-.1-5.3-.5-4-.8-7.4-2.7-9.9-5.9-3.2-4.1-4.4-8.7-3.5-13.9 1-5.4 3.9-9.4 8.7-12 3.1-1.7 6.6-2 10.1-2 8.5-.1 17 0 25.5 0 .7 0 .9-.2.9-.9v-7c0-.7-.2-.8-.8-.8h-25.3c-2.7 0-5.5.2-8.1.8-8 1.6-13.9 6.1-17.5 13.3-2.7 5.2-3.2 10.9-2.1 16.7 1.4 8.2 6 14.1 13.3 18 4.1 2.2 8.6 2.8 13.1 2.8 9 .1 17.9 0 26.9.1.6 0 .7-.2.7-.7v-6.9c-.2-.9-.4-1.1-1.1-1.1zm101.7-43.1h-57.3c-.7 0-.9.2-.8.8v7c0 .8.2 1 1 1h23c1.1 0 1.1 0 1.1 1.1v40.9c0 .7.2.9.9.9h7c1 0 1 0 1-1v-40.7c0-1.1 0-1.1 1.1-1.1H451c.7 0 .9-.2.8-.8v-7c0-.9-.3-1.1-1-1.1zm-299.2 43.1h-36c-1.1 0-2.1 0-3.2-.2-2.8-.3-4.4-1.8-4.8-4.5-.2-1.2-.3-2.5-.3-3.8v-33.7c0-.7-.2-.9-.9-.9h-7.1c-.7 0-.9.2-.9.9v34.9c0 1.8.2 3.7.6 5.5 1 4.3 3.4 7.4 7.6 9 2.4.9 4.9 1.3 7.5 1.3h37.5c.8 0 .9-.2.9-.9 0-2.2-.1-4.4 0-6.6.1-.8-.1-1.1-.9-1zm398.4 7.7c-.1-1.1-.2-2.2-.2-3.3v-11.4c0-1.1-.2-2.2-.4-3.3-.8-3.4-2.7-5.7-6.2-6.9 1.4-.9 2.6-1.8 3.4-3 2.9-4.1 3.6-8.6 1.9-13.3-1.4-3.8-3.9-6.6-7.7-8.1-2.3-.9-4.8-1.3-7.2-1.3h-38.2c-1.9.1-2.9 1.2-2.9 3v47.9c0 .6.2.7.7.7h7.2c.7 0 1-.2 1-.9v-19.2c0-.7.2-.9.9-.9h30.3c.8 0 1.6 0 2.4.2 2.4.4 4.3 1.6 5.3 4 .4 1 .6 2 .6 3.1.1 4.3-.1 8.6.1 12.9 0 .7.2 1 1 1h7.3c.6-.4.8-.6.7-1.2zm-11.3-31c-1.5 1.9-3.5 2.8-6 2.9-10.2.3-20.5 0-30.7.1-.7 0-.8-.2-.8-.8v-12c0-1.3.4-1.7 1.7-1.7h29.5c1.7 0 3.3.4 4.7 1.3 3.4 2.3 4.1 7 1.6 10.2zm113.2 3.4c-.3-3.1-1-6.1-2.4-8.9-1.5-3.2-3.7-5.9-6.5-8.2-2.5-2.1-5.3-3.6-8.4-4.6-3-.9-6-1.4-9.1-1.4-5.8 0-11.5-.3-17.3.4-5.7.7-10.5 3-14.6 7-4.7 4.6-7 10.3-7.3 16.7-.2 4.3.4 8.6 2.2 12.6 2.6 5.9 6.9 10.1 12.8 12.6 3.8 1.6 7.8 2 11.9 2.2 2 .1 4.1 0 6.1 0 4.4 0 8.7.1 13.1-.8 8.4-1.7 14.3-6.6 17.6-14.4 1.8-4.2 2.3-8.6 1.9-13.2zm-18.2 18c-2.1 1-4.3 1.5-6.5 1.7-2.7.3-5.3 0-7.3.1-2.8 0-5 .1-7.1 0-4-.2-7.9-1.1-11.1-3.7-3.6-2.9-5.7-6.7-6.3-11.3-.5-4.5.5-8.5 3.1-12.2 2.7-3.7 6.3-5.9 10.8-6.6 2.1-.3 4.2-.5 6.3-.4 3.8 0 7.6-.1 11.5.1 8.2.6 13.9 5.7 15.7 13.2 1.8 7.6-2.1 15.8-9.1 19.1z"/></svg>