<svg fill="#fff" xmlns="http://www.w3.org/2000/svg" height="800" width="1200" viewBox="-59.23545 -59.959 513.3739 359.754"><g fill="#ffffff"><path d="M161.24 0c13.172.056 26.338-.005 39.51.03 4.777.33 9.569.016 14.351.193-.228 4.27-.162 8.541-.162 12.817-13.303 0-26.606-.03-39.91.015-.004 6.378.016 12.76-.004 19.144 7.467.005 14.934.035 22.396-.02.036 4.078-.015 8.156.036 12.234-7.473.091-14.95-.025-22.422.056.025 16.069-.071 32.133.05 48.197-4.675.101-9.351.101-14.027.005.152-13.658-.127-27.32.172-40.973 0-17.235-.025-34.469.01-51.698z"/><path d="M219.843.035c4.66-.01 9.321-.05 13.982.02-.122 12.321.131 24.651-.157 36.967.01 14.524 0 29.043.005 43.567-.02 4.047.086 8.1-.178 12.143-7.543.111-15.076-.238-22.614-.157-10.334.01-20.664-.02-30.993.02.005-4.296.147-8.592.091-12.888 13.283.015 26.566-.015 39.854.02.076-6.428.015-12.857.025-19.28-7.467-.02-14.93-.026-22.396-.006-.01-4.083.015-8.17-.01-12.254 7.467-.127 14.939.04 22.411-.086-.005-16.024.025-32.047-.02-48.066zM.007 133.127c23.552 0 47.098.02 70.65-.01.025 6.333.05 12.665-.01 19.002-16.632-.005-33.268-.015-49.905.005.01 7.949-.01 15.902.01 23.85 14.565-.03 29.13-.004 43.689-.01.08 6.313-.015 12.625.05 18.937-14.58-.015-29.154.015-43.729-.015-.035 14.975-.02 29.95-.01 44.924a973.611 973.611 0 00-20.714-.005c-.076-35.557-.01-71.12-.03-106.678zM84.395 239.81c-.025-35.572-.03-71.145.005-106.718 24.337.076 48.679.035 73.02.02.006 6.338-.025 12.675.016 19.007-17.574 0-35.153-.03-52.726.02.055 7.437.005 14.88.025 22.321 16.14-.04 32.275-.015 48.415-.015-.06 6.307.01 12.62-.046 18.926-16.12.015-32.244.025-48.364-.01-.04 9.129.04 18.258-.04 27.381 18.369.061 36.738.01 55.112.026.045 6.332.045 12.664 0 19.002-25.137.02-50.28-.066-75.417.04zM175.4 133.092c7.315.056 14.63.07 21.945 0 13.197 24.787 26.388 49.575 39.61 74.347.046-24.767.041-49.534 0-74.297 6.45-.035 12.898.01 19.347-.025.03 35.558.026 71.115.005 106.673-6.9-.05-13.8-.02-20.694-.02a31326.919 31326.919 0 00-40.71-76.105c.005 25.38.01 50.755-.005 76.135-6.5-.055-13.004-.08-19.509.016.046-35.573.026-71.151.01-106.724zm100.71.02c15.066.046 30.132 0 45.198.025 8.263.132 16.723 2.462 23.09 7.918 6.672 5.228 10.568 13.111 13.005 21.06 2.057 7.239 2.806 14.787 2.933 22.295-.299 11.595-1.935 23.47-7.29 33.906-3.354 7.229-8.941 13.465-15.942 17.31-5.132 2.791-10.993 3.967-16.789 4.119-14.721.07-29.448-.056-44.17.065-.1-35.567-.03-71.135-.035-106.698m20.532 18.592c-.056 23.156-.03 46.313-.015 69.469 6.55-.03 13.095 0 19.646-.015 2.68-.071 5.415-.406 7.887-1.49 4.788-1.975 8.187-6.256 10.441-10.78 3.805-8.247 4.635-17.538 4.387-26.51-.228-8.597-1.535-17.802-7.204-24.63-3.409-4.225-9.052-5.629-14.23-5.968-6.97-.127-13.941.025-20.912-.076zm77.549 88.132c-.076-35.583-.066-71.166-.005-106.75 6.895.102 13.795.026 20.69.031.03 35.548.045 71.1-.006 106.653-6.894.03-13.79-.101-20.679.066z"/></g></svg>