<svg fill="#fff" xmlns="http://www.w3.org/2000/svg" height="800" width="1200" viewBox="-37.425 -10.8125 324.35 64.875"><path d="M249.5 18.36v24.42h-10.88V16.14c0-2.53-.76-4.36-2.28-5.52-1.53-1.15-3.23-1.73-5.13-1.73-1.89 0-3.58.58-5.05 1.73-1.47 1.16-2.21 2.99-2.21 5.52v26.63h-11.03V.12L232 .13c4.2.18 8.09 1.33 11.67 3.55 3.89 2.43 5.83 7.32 5.83 14.68M173.08.97c-1.4 1.4-7.14 8.24-7.3 8.4-1.3 1.3-2.42 1.35-4.01 1.5-2.33.17-3.85.53-5.07 1.71-1.48 1.67-1.44 4.03-1.44 7.05v23.15h-11V18.34c0-7.36 1.94-12.26 5.84-14.68 3.46-2.15 7.19-3.26 11.23-3.48.9-.05 4.36-.09 4.5-.09l7.05.1c.41 0 .5.48.2.78m-39.62 28.48h7.88c-1.16 4.41-3.37 7.78-6.62 10.09-3.26 2.42-7.37 3.63-12.31 3.63-5.99 0-10.67-1.94-14.03-5.83-3.37-3.78-5.05-8.68-5.05-15.72 0-6.73 1.63-11.99 4.89-15.77 3.37-3.89 8.05-5.84 14.04-5.84 6.31 0 11.2 1.89 14.67 5.68 1.89 2.32 3.26 4.99 4.1 8.04h-11.04c-.53-1.05-1.05-1.84-1.58-2.36-1.37-1.47-3.31-2.21-5.84-2.21-2.32 0-4.21.74-5.68 2.21-1.9 2.1-2.84 5.57-2.84 10.4 0 4.84.94 7.73 2.84 9.73 1.36 1.69 3.41 2.52 6.15 2.52 1.79 0 3.32-.37 4.57-1.1.32-.1.6-.29.87-.55l.87-.87c.21-.32.63-.73 1.26-1.26.64-.53 1.59-.79 2.85-.79M62.29 18.3v24.42H51.41V16.09c0-2.53-.76-4.36-2.29-5.52-1.53-1.16-3.23-1.73-5.12-1.73-1.89 0-3.6.58-5.13 1.73-1.52 1.16-2.29 2.99-2.29 5.52v26.63H25.7V16.09c0-2.53-.76-4.36-2.28-5.52-1.53-1.16-3.24-1.73-5.13-1.73-1.9 0-3.58.58-5.05 1.73-1.47 1.16-2.21 2.99-2.21 5.52v26.63H0V0l17.98.01c2.42 0 4.78.26 7.1.79 2.31.53 4.41 1.58 6.31 3.15 1.58-1.36 3.44-2.34 5.6-2.92 2.15-.58 4.39-.92 6.7-1.02 4.63 0 8.88 1.21 12.77 3.63 3.89 2.42 5.83 7.31 5.83 14.66m26.55 14.96c-.95.84-2.31 1.26-4.1 1.26H80.8c-1.79 0-3.15-.42-4.1-1.26-.95-.95-1.42-2.19-1.42-3.76 0-1.86 1.38-3.47 3.39-4.26.54-.22 1.14-.44 1.81-.63l3.63-.79c2.63-.63 4.68-1.31 6.15-2.05v7.71c0 1.57-.47 2.83-1.42 3.78M95.94 3C92.99 1.01 88.58.01 82.69.01c-5.26 0-9.3 1.21-12.14 3.63-2.52 2.11-4 4.79-4.41 8.04h10.57c.52-1.16 1.36-1.95 2.52-2.37 1.16-.42 2.47-.63 3.94-.63 1.36 0 2.86.23 4.49.71 1.63.48 2.45 1.5 2.45 3.08 0 2.11-2.31 3.47-6.94 4.1l-4.42.63c-4 .63-7.28 1.89-9.86 3.78-2.58 1.9-3.87 4.4-3.87 8.81 0 4.73 1.42 8.12 4.26 10.18 2.84 2.05 6.15 3.07 9.94 3.07h7.1c3.79 0 7.1-1.02 9.94-3.07 2.84-2.06 4.25-5.45 4.25-10.18V11.84c0-3.79-1.53-6.73-4.57-8.84m70.85 18.7c0 11.57 9.1 21.01 20.54 21.55l-15.24-35.7c-3.3 3.79-5.3 8.73-5.3 14.15m43.15 0c0-5.41-2-10.36-5.29-14.15l-15.22 35.7c11.42-.56 20.51-9.99 20.51-21.55m-20.24-7.48c-.34.35-.81.57-1.34.57-.47 0-.9-.18-1.23-.46l-5.19-4.48c-.23-.2-.37-.5-.37-.83 0-.33.15-.63.38-.84l5.22-4.51c.32-.27.74-.44 1.2-.44.5 0 .95.2 1.28.51l5.11 4.41c.24.2.39.51.39.85 0 .32-.14.61-.35.82zM188.36.12c-6.13 0-11.66 2.56-15.58 6.66l13.45 12.37c.57.52 1.32.83 2.14.83.82 0 1.57-.31 2.13-.82l13.45-12.37c-3.93-4.11-9.46-6.67-15.59-6.67"/></svg>