<svg width="24" height="16" viewBox="0 0 24 16" fill="none" xmlns="http://www.w3.org/2000/svg">
<mask id="mask0_368_625" style="mask-type:luminance" maskUnits="userSpaceOnUse" x="0" y="0" width="24" height="16">
<path d="M24 0.339844H0V15.1398H24V0.339844Z" fill="white"/>
</mask>
<g mask="url(#mask0_368_625)">
<path d="M7.4 15.1398C11.4869 15.1398 14.8 11.8267 14.8 7.73985C14.8 3.65294 11.4869 0.339844 7.4 0.339844C3.31309 0.339844 0 3.65294 0 7.73985C0 11.8267 3.31309 15.1398 7.4 15.1398Z" fill="#DD3D31"/>
<path d="M16.5999 15.1398C20.6868 15.1398 23.9999 11.8267 23.9999 7.73985C23.9999 3.65294 20.6868 0.339844 16.5999 0.339844C12.513 0.339844 9.19995 3.65294 9.19995 7.73985C9.19995 11.8267 12.513 15.1398 16.5999 15.1398Z" fill="#EEB046"/>
<path fill-rule="evenodd" clip-rule="evenodd" d="M11.9999 13.6395C15.1999 11.1395 15.7999 6.43945 13.2999 3.23945C12.8999 2.73945 12.4999 2.33945 11.9999 1.93945C8.7999 4.43945 8.1999 9.13945 10.6999 12.3395C11.0999 12.8395 11.4999 13.2395 11.9999 13.6395Z" fill="#EF7D2F"/>
</g>
</svg>
