<svg xmlns="http://www.w3.org/2000/svg" height="800" width="1200" viewBox="-83.37291 -18.40805 722.56522 110.4483"><path d="M232.9734.7815c18.325-1.925 36.88-.231 54.666 4.389 1.925.385 3.465 2.156 3.312 4.158-.231 3.542-2.542 6.468-4.929 8.854-3.541 3.388-7.93 6.005-12.781 6.853-2.618.539-5.082-.539-7.545-1.001-18.941-4.466-38.959-5.39-57.978-.924-8.238 1.925-16.399 4.773-23.637 9.394-3.234 2.078-5.543 5.235-7.931 8.238-4.465 6.159-8.623 12.627-12.319 19.249-3.002 6.082-8.777 10.548-15.245 12.473-2.772.771-6.622 1.231-8.393-1.54-1.617-3.003.539-6.159 2.002-8.777 7.468-13.012 15.707-25.947 26.871-36.11 11.857-10.086 26.333-16.554 41.192-20.866 7.393-2.08 15.092-3.543 22.715-4.39zm127.889.77c10.779-1.155 21.713-1.078 32.568 0 7.623.847 15.323 2.079 22.329 5.467 2.233 1.078 2.31 4.004 1.54 6.083-1.849 4.697-5.929 8.161-10.164 10.702-3.541 1.771-7.775 3.542-11.703 2.079-8.161-3.542-17.092-4.312-25.87-4.851-18.171-.847-36.342 2.001-53.511 7.853-5.313 1.848-10.703 3.85-15.477 6.853-1.154.77-2.618 2.079-1.848 3.619 1.385 3.926 5.389 6.236 8.931 8.084 10.856 5.159 23.099 6.083 34.956 5.929 12.319-.23 24.639-1.309 36.573-4.465 3.233-.848 6.621-2.465 10.086-1.464 1.848.462 3.233 2.311 3.003 4.235-.231 3.079-2.002 5.697-4.081 7.854-3.233 3.465-7.314 6.082-11.857 7.391-17.4 5.313-35.648 6.854-53.742 6.699-12.089-.385-24.484-1.925-35.341-7.392-5.697-2.849-11.396-7.314-12.781-13.858-1.232-6.776 2.387-13.321 6.622-18.325 8.316-9.471 19.71-15.63 31.26-20.481 15.399-6.391 31.876-10.241 48.507-12.012zm-213.354 9.702c-5.312-4.851-12.55-6.853-19.403-8.315-13.397-2.541-27.102-2.695-40.653-1.463-21.405 2.233-42.809 7.699-61.827 18.017-8.469 4.773-16.63 10.703-22.02 18.941-3.003 4.696-4.851 10.856-2.618 16.246 2.464 6.236 8.469 10.009 14.244 12.627 10.471 4.543 21.943 6.005 33.262 6.313 15.553.154 31.183-1.078 46.274-4.774 17.092-4.234 33.801-12.011 46.042-24.945 5.005-5.467 9.625-11.78 11.087-19.25 1.002-4.851-.692-10.164-4.388-13.397zm-20.789 24.715c-2.849 4.928-8.162 7.699-13.243 9.932-10.856 4.312-22.56 6.083-34.186 7.007-12.012.77-24.331 1.001-36.111-1.925-6.083-1.693-12.473-3.927-16.939-8.546-1.309-1.464-2.926-4.004-1.078-5.698 2.463-2.079 5.543-3.388 8.469-4.696 13.397-5.775 27.795-9.163 42.271-10.549 11.626-1 23.406-.77 34.878 1.309 5.082 1.155 10.395 2.464 14.398 6.005 2.081 1.695 3.082 4.775 1.541 7.161zm429.017-12.858c-.847-6.622-4.927-12.781-10.934-15.784-8.7-4.389-18.555-5.312-28.103-6.083-26.102-2.156-53.05 1.078-76.995 12.011-11.935 5.621-23.483 13.243-31.105 24.254-3.619 5.235-6.775 11.549-5.929 18.093.692 5.005 4.543 8.854 8.777 11.165 6.853 3.618 14.552 5.004 22.097 5.852 26.333 2.849 53.204-.616 78.15-9.624.539-.154 1.078-.231 1.617-.309-2.002 2.233-3.003 6.545-.23 8.547 2.463 1.463 5.543.847 8.161.153 5.697-1.771 10.317-5.928 13.705-10.779 5.543-7.776 10.933-15.706 16.399-23.56 2.773-4.081 4.929-8.931 4.39-13.936zm-29.643 17.247c-12.858 6.39-26.948 9.854-41.115 11.779-10.702 1.387-21.481 1.464-32.185.386-6.93-.847-14.013-1.925-20.172-5.39-2.542-1.463-5.236-3.772-5.005-6.93.462-2.617 2.387-4.619 4.234-6.391 4.62-3.927 10.472-6.159 16.169-7.93 8.238-2.387 16.708-3.619 25.177-4.312 14.938-1.078 30.567-1.463 44.889 3.85 4.773 2.002 10.087 4.466 12.473 9.394 1.232 2.926-2.463 4.312-4.465 5.544z" fill="#ffffff"/></svg>