<svg width="53" height="15" viewBox="0 0 53 15" fill="none" xmlns="http://www.w3.org/2000/svg">
<mask id="mask0_368_633" style="mask-type:luminance" maskUnits="userSpaceOnUse" x="0" y="0" width="53" height="15">
<path d="M52.5 0.740234H0V14.7402H52.5V0.740234Z" fill="white"/>
</mask>
<g mask="url(#mask0_368_633)">
<path d="M6.63753 0.852539H2.61253C2.33753 0.852539 2.10003 1.05253 2.06253 1.32753L0.437533 11.6275C0.400033 11.8275 0.562533 12.015 0.775033 12.015H2.70003C2.97503 12.015 3.21253 11.8151 3.25003 11.5401L3.68753 8.76503C3.72503 8.49003 3.96253 8.29004 4.23753 8.29004H5.50003C8.15003 8.29004 9.67503 7.01505 10.0751 4.46505C10.2501 3.35255 10.0876 2.47754 9.56253 1.86504C8.98753 1.21504 7.97503 0.852539 6.63753 0.852539ZM7.10003 4.62754C6.87503 6.06504 5.77503 6.06504 4.71253 6.06504H4.10003L4.52503 3.37754C4.55003 3.21504 4.68753 3.09005 4.85003 3.09005H5.12503C5.85003 3.09005 6.53753 3.09004 6.88753 3.50254C7.11253 3.75254 7.17503 4.11504 7.10003 4.62754Z" fill="#283B82"/>
<path d="M18.6501 4.57715H16.7251C16.5626 4.57715 16.4251 4.70216 16.4001 4.86466L16.3126 5.40217L16.1751 5.20215C15.7626 4.60215 14.8251 4.38965 13.9001 4.38965C11.7751 4.38965 9.96256 6.00215 9.60006 8.26465C9.41256 9.38965 9.67506 10.4647 10.3126 11.2272C10.9001 11.9147 11.7376 12.2021 12.7376 12.2021C14.4501 12.2021 15.4001 11.1022 15.4001 11.1022L15.3126 11.6396C15.2751 11.8396 15.4376 12.0272 15.6376 12.0272H17.3751C17.6501 12.0272 17.8876 11.8272 17.9251 11.5522L18.9626 4.96467C19.0126 4.76467 18.8501 4.57715 18.6501 4.57715ZM15.9626 8.32715C15.7751 9.42715 14.9001 10.1647 13.7876 10.1647C13.2251 10.1647 12.7876 9.98965 12.5001 9.63965C12.2126 9.30215 12.1126 8.82716 12.2001 8.28966C12.3751 7.20216 13.2626 6.43966 14.3626 6.43966C14.9126 6.43966 15.3501 6.62717 15.6501 6.96467C15.9251 7.30217 16.0501 7.78965 15.9626 8.32715Z" fill="#283B82"/>
<path d="M28.9001 4.57715H26.9626C26.7751 4.57715 26.6001 4.66465 26.5001 4.82715L23.8376 8.75216L22.7126 4.97716C22.6376 4.73966 22.4251 4.57715 22.1751 4.57715H20.2751C20.0501 4.57715 19.8876 4.80215 19.9626 5.01465L22.0876 11.2646L20.0876 14.0896C19.9251 14.3146 20.0876 14.6146 20.3626 14.6146H22.3001C22.4876 14.6146 22.6501 14.5271 22.7626 14.3771L29.2001 5.08967C29.3251 4.87717 29.1626 4.57715 28.9001 4.57715Z" fill="#283B82"/>
<path d="M35.3001 0.852539H31.2751C31.0001 0.852539 30.7626 1.05253 30.7251 1.32753L29.1001 11.6275C29.0626 11.8275 29.2251 12.015 29.4251 12.015H31.5001C31.6876 12.015 31.8501 11.8775 31.8876 11.69L32.3501 8.76503C32.3876 8.49003 32.6251 8.29004 32.9001 8.29004H34.1751C36.8251 8.29004 38.3501 7.01505 38.7501 4.46505C38.9251 3.35255 38.7626 2.47754 38.2376 1.86504C37.6626 1.21504 36.6501 0.852539 35.3001 0.852539ZM35.7626 4.62754C35.5376 6.06504 34.4376 6.06504 33.3751 6.06504H32.7751L33.2001 3.37754C33.2251 3.21504 33.3626 3.09005 33.5251 3.09005H33.8001C34.5251 3.09005 35.2126 3.09004 35.5626 3.50254C35.7751 3.75254 35.8376 4.11504 35.7626 4.62754Z" fill="#469BDB"/>
<path d="M47.3127 4.57715H45.3877C45.2252 4.57715 45.0877 4.70216 45.0627 4.86466L44.9752 5.40217L44.8377 5.20215C44.4252 4.60215 43.4877 4.38965 42.5627 4.38965C40.4377 4.38965 38.6252 6.00215 38.2627 8.26465C38.0752 9.38965 38.3377 10.4647 38.9752 11.2272C39.5627 11.9147 40.4002 12.2021 41.4002 12.2021C43.1127 12.2021 44.0627 11.1022 44.0627 11.1022L43.9752 11.6396C43.9377 11.8396 44.1002 12.0272 44.3127 12.0272H46.0502C46.3252 12.0272 46.5627 11.8272 46.6002 11.5522L47.6377 4.96467C47.6752 4.76467 47.5127 4.57715 47.3127 4.57715ZM44.6252 8.32715C44.4377 9.42715 43.5627 10.1647 42.4502 10.1647C41.8877 10.1647 41.4502 9.98965 41.1627 9.63965C40.8752 9.30215 40.7752 8.82716 40.8627 8.28966C41.0377 7.20216 41.9252 6.43966 43.0252 6.43966C43.5752 6.43966 44.0127 6.62717 44.3127 6.96467C44.6002 7.30217 44.7127 7.78965 44.6252 8.32715Z" fill="#469BDB"/>
<path d="M49.5751 1.14011L47.9251 11.6401C47.8876 11.8401 48.0501 12.0276 48.2501 12.0276H49.9126C50.1876 12.0276 50.4251 11.8276 50.4626 11.5526L52.0876 1.25262C52.1251 1.05262 51.9626 0.86512 51.7626 0.86512H49.9001C49.7501 0.85262 49.6126 0.977614 49.5751 1.14011Z" fill="#469BDB"/>
</g>
</svg>
