<svg width="41" height="15" viewBox="0 0 41 15" fill="none" xmlns="http://www.w3.org/2000/svg">
<mask id="mask0_368_644" style="mask-type:luminance" maskUnits="userSpaceOnUse" x="0" y="0" width="41" height="15">
<path d="M40.5 0.740234H0.5V14.7402H40.5V0.740234Z" fill="white"/>
</mask>
<g mask="url(#mask0_368_644)">
<path d="M29.3 4.14043C30.2 4.14043 30.9 3.44043 30.9 2.54043C30.9 1.64043 30.2 0.94043 29.3 0.94043C28.4 0.94043 27.7 1.64043 27.7 2.54043C27.6 3.44043 28.3 4.14043 29.3 4.14043C29.3 4.24043 29.3 4.24043 29.3 4.14043ZM16.7 5.04043C16.6 5.24043 16.1 6.74043 14.8 8.34043V1.64043L11.4 2.34043V14.4405H14.8V10.7405C15.8 12.2405 16.3 14.4405 16.3 14.4405H20.4C20 12.7405 18.2 9.64043 18.2 9.64043C19.3 8.24043 20.1 6.74043 20.6 5.14043L16.7 5.04043ZM25.7 4.94043C22.6 5.04043 21.1 6.44043 21.1 9.14043V14.4405H24.5V10.1405C24.5 8.54043 24.7 7.84043 26.7 7.74043V5.04043C26.3 4.94043 25.7 4.94043 25.7 4.94043ZM5.6 6.44043C5.2 6.44043 4.2 6.34043 4.2 5.44043C4.2 4.34043 5.6 4.34043 6.1 4.34043C7 4.34043 8.2 4.64043 9.1 4.84043C9.4 4.94043 9.7 5.04043 10 5.14043V2.34043H9.9C8.9 1.94043 7.7 1.64043 5.5 1.64043C1.8 1.64043 0.5 3.84043 0.5 5.74043C0.5 6.84043 1 9.34043 5.3 9.64043C5.7 9.64043 6.6 9.74043 6.6 10.6405C6.6 11.3405 5.8 11.8405 4.5 11.8405C3 11.8405 1.6 11.4405 0.8 11.1405V14.1405C2.1 14.4405 3.5 14.6405 5.2 14.6405C8.9 14.6405 10.5 12.5405 10.5 10.5405C10.5 8.14043 8.7 6.64043 5.6 6.44043ZM27.6 14.4405H30.9V5.04043H27.6V14.4405ZM37.2 2.24043V14.4405H40.5V1.64043L37.2 2.24043ZM32.3 2.24043L35.6 1.64043V14.4405H32.3V2.24043Z" fill="#862565"/>
</g>
</svg>
