<svg width="36" height="13" viewBox="0 0 36 13" fill="none" xmlns="http://www.w3.org/2000/svg">
<path d="M31.5998 5.03985L32.1998 8.23985H29.7998L30.9998 5.13985L31.1998 4.53985L31.2998 4.03985C31.2998 4.13985 31.5998 5.03985 31.5998 5.03985ZM8.89981 12.1398L13.2998 1.23985H10.2998L7.59981 8.73985L7.29981 7.13985L6.29981 2.13985C6.19981 1.53985 5.69981 1.13985 4.89981 1.13985H0.399805L0.299805 1.33985C1.49981 1.53985 2.39981 1.93985 3.29981 2.53985L5.89981 12.2398H8.99981L8.89981 12.1398ZM15.5998 12.1398L17.3998 1.23985H14.5998L12.7998 12.3398H15.5998V12.1398ZM25.6998 8.63985C25.6998 7.43985 24.8998 6.43985 23.2998 5.53985C22.0998 5.03985 21.4998 4.63985 21.4998 4.23985C21.4998 3.63985 22.0998 3.33985 23.2998 3.33985C23.9998 3.33985 24.6998 3.33985 25.2998 3.83985H25.6998L25.9998 1.33985C25.0998 0.939844 24.2998 0.839844 23.3998 0.839844C22.4998 0.839844 21.6998 1.03984 20.9998 1.33985C20.2998 1.63985 19.6998 2.03985 19.1998 2.63985C18.7998 3.23985 18.5998 3.83985 18.5998 4.53985C18.5998 5.73985 19.3998 6.73985 21.1998 7.63985C22.0998 8.13985 22.5998 8.53984 22.5998 8.93984C22.5998 9.63984 21.9998 10.1398 20.8998 10.1398C19.9998 10.1398 18.9998 9.93985 18.1998 9.53985L17.7998 9.33985L17.2998 11.7398C18.2998 12.1398 19.3998 12.4398 20.4998 12.4398C21.7998 12.5398 22.9998 12.1398 23.9998 11.5398C25.1998 10.7398 25.6998 9.73985 25.6998 8.63985ZM35.6998 12.1398L33.3998 1.23985H31.1998C30.4998 1.23985 29.9998 1.43985 29.7998 2.13985L25.4998 12.3398H28.4998L28.9998 10.7398H32.7998L33.1998 12.4398H35.7998V12.1398H35.6998Z" fill="url(#paint0_linear_390_647)"/>
<defs>
<linearGradient id="paint0_linear_390_647" x1="1.58171" y1="6.64825" x2="35.2447" y2="6.64825" gradientUnits="userSpaceOnUse">
<stop stop-color="#2C3572"/>
<stop offset="1" stop-color="#3C62AB"/>
</linearGradient>
</defs>
</svg>
